<svg width="30" height="30" viewBox="0 0 30 30" fill="none" xmlns="http://www.w3.org/2000/svg">
<mask id="path-1-outside-1_11_1379" maskUnits="userSpaceOnUse" x="4" y="0.5" width="22" height="29" fill="black">
<rect fill="white" x="4" y="0.5" width="22" height="29"/>
<path d="M15.0664 3.5C19.5215 3.5 23.1338 7.19365 23.1338 11.75C23.1338 16.3063 19.5479 20 15.0664 25.5C10.585 20.0001 7 16.3063 7 11.75C7 7.19374 10.6114 3.50014 15.0664 3.5ZM15.0654 7.16211C12.5904 7.16211 10.584 9.21479 10.584 11.7461C10.5841 14.2773 12.5904 16.3291 15.0654 16.3291C17.5404 16.329 19.5468 14.2773 19.5469 11.7461C19.5469 9.21484 17.5404 7.16219 15.0654 7.16211Z"/>
</mask>
<path d="M15.0664 3.5V1H15.0663L15.0664 3.5ZM23.1338 11.75H25.6338H23.1338ZM15.0664 25.5L13.1283 27.0792L15.0664 29.4577L17.0045 27.0792L15.0664 25.5ZM7 11.75H4.5H7ZM15.0654 7.16211L15.0655 4.66211H15.0654V7.16211ZM10.584 11.7461H8.08398V11.7462L10.584 11.7461ZM15.0654 16.3291V18.8291H15.0655L15.0654 16.3291ZM19.5469 11.7461L22.0469 11.7462V11.7461H19.5469ZM15.0664 3.5V6C18.0884 6 20.6338 8.52139 20.6338 11.75H23.1338H25.6338C25.6338 5.86591 20.9546 1 15.0664 1V3.5ZM23.1338 11.75H20.6338C20.6338 13.3252 20.0288 14.8962 18.7019 16.8824C17.3329 18.9316 15.4605 21.0586 13.1283 23.9208L15.0664 25.5L17.0045 27.0792C19.1538 24.4414 21.3151 21.9716 22.8594 19.6599C24.4459 17.2852 25.6338 14.7311 25.6338 11.75H23.1338ZM15.0664 25.5L17.0045 23.9208C14.6725 21.0588 12.8002 18.9316 11.4316 16.8826C10.1049 14.8964 9.5 13.3253 9.5 11.75H7H4.5C4.5 14.731 5.68755 17.2849 7.27376 19.6597C8.81795 21.9716 10.9789 24.4413 13.1283 27.0792L15.0664 25.5ZM7 11.75H9.5C9.5 8.52117 12.0448 6.0001 15.0665 6L15.0664 3.5L15.0663 1C9.17801 1.00019 4.5 5.86631 4.5 11.75H7ZM15.0654 7.16211V4.66211C11.1565 4.66211 8.08398 7.88783 8.08398 11.7461H10.584H13.084C13.084 10.5417 14.0242 9.66211 15.0654 9.66211V7.16211ZM10.584 11.7461L8.08398 11.7462C8.08413 15.6049 11.1572 18.8291 15.0654 18.8291V16.3291V13.8291C14.0237 13.8291 13.084 12.9497 13.084 11.746L10.584 11.7461ZM15.0654 16.3291L15.0655 18.8291C18.9736 18.829 22.0467 15.6049 22.0469 11.7462L19.5469 11.7461L17.0469 11.746C17.0468 12.9496 16.1071 13.8291 15.0653 13.8291L15.0654 16.3291ZM19.5469 11.7461H22.0469C22.0469 7.8878 18.9742 4.66224 15.0655 4.66211L15.0654 7.16211L15.0653 9.66211C16.1066 9.66214 17.0469 10.5419 17.0469 11.7461H19.5469Z" fill="#2D2C3C" mask="url(#path-1-outside-1_11_1379)"/>
</svg>
