<svg width="30" height="31" viewBox="0 0 30 31" fill="none" xmlns="http://www.w3.org/2000/svg">
<path d="M28.7215 11.1289L26.1357 8.54317C25.9271 8.33736 25.649 8.21719 25.3561 8.20634C25.0633 8.1955 24.777 8.29477 24.5537 8.48458C24.209 8.77798 23.7667 8.93117 23.3143 8.91381C22.862 8.89645 22.4327 8.70979 22.1115 8.39083C21.7927 8.06966 21.6062 7.64049 21.5888 7.1883C21.5715 6.73611 21.7245 6.29389 22.0178 5.94922C22.2076 5.72595 22.3069 5.43967 22.296 5.14682C22.2852 4.85397 22.165 4.57581 21.9592 4.36719L19.3711 1.77852C19.1524 1.56022 18.856 1.43762 18.547 1.43762C18.238 1.43762 17.9416 1.56022 17.7229 1.77852L13.6008 5.90001C13.3463 6.15541 13.1544 6.46626 13.04 6.80821C13.0178 6.87395 12.9807 6.93368 12.9316 6.98276C12.8825 7.03184 12.8228 7.06896 12.757 7.09122C12.4149 7.20554 12.1041 7.39769 11.8488 7.65255L1.27852 18.2229C1.06022 18.4416 0.937622 18.738 0.937622 19.047C0.937622 19.356 1.06022 19.6524 1.27852 19.8711L3.86719 22.4568C4.07581 22.6626 4.35397 22.7828 4.64682 22.7937C4.93967 22.8045 5.22595 22.7052 5.44922 22.5154C5.7931 22.2197 6.23605 22.0648 6.68931 22.0818C7.14257 22.0988 7.57266 22.2865 7.89339 22.6072C8.21412 22.9279 8.40179 23.358 8.41881 23.8113C8.43583 24.2645 8.28094 24.7075 7.98516 25.0514C7.79535 25.2746 7.69608 25.5609 7.70693 25.8538C7.71777 26.1466 7.83795 26.4248 8.04376 26.6334L10.6295 29.2191C10.8482 29.4374 11.1446 29.56 11.4536 29.56C11.7626 29.56 12.059 29.4374 12.2777 29.2191L22.8481 18.6488C23.1028 18.3937 23.2949 18.0831 23.4094 17.7412C23.4315 17.6753 23.4687 17.6153 23.5179 17.5661C23.5671 17.5169 23.627 17.4798 23.693 17.4576C24.0347 17.3433 24.3454 17.1513 24.6006 16.8969L28.7221 12.7748C28.9396 12.5561 29.0616 12.2602 29.0615 11.9517C29.0614 11.6433 28.9391 11.3475 28.7215 11.1289ZM15.3404 9.39161C15.2534 9.47869 15.15 9.54776 15.0363 9.59489C14.9225 9.64201 14.8006 9.66627 14.6774 9.66627C14.5543 9.66627 14.4324 9.64201 14.3186 9.59489C14.2049 9.54776 14.1015 9.47869 14.0145 9.39161L13.34 8.71719C13.1685 8.54049 13.0734 8.30339 13.0752 8.05713C13.0771 7.81087 13.1758 7.57523 13.35 7.40113C13.5241 7.22703 13.7598 7.12846 14.0061 7.12671C14.2523 7.12497 14.4894 7.22019 14.666 7.3918L15.3404 8.06563C15.4275 8.15269 15.4966 8.25605 15.5437 8.3698C15.5908 8.48356 15.6151 8.60549 15.6151 8.72862C15.6151 8.85175 15.5908 8.97368 15.5437 9.08743C15.4966 9.20119 15.4275 9.30455 15.3404 9.39161ZM17.9186 11.9697C17.7428 12.1454 17.5044 12.2441 17.2559 12.2441C17.0073 12.2441 16.769 12.1454 16.5932 11.9697L15.9486 11.3252C15.8616 11.2381 15.7925 11.1348 15.7454 11.021C15.6983 10.9073 15.674 10.7853 15.674 10.6622C15.674 10.5391 15.6983 10.4172 15.7454 10.3034C15.7925 10.1897 15.8616 10.0863 15.9486 9.99922C16.1245 9.82339 16.363 9.72461 16.6116 9.72461C16.7348 9.72461 16.8567 9.74886 16.9704 9.79598C17.0842 9.8431 17.1876 9.91216 17.2746 9.99922L17.9191 10.6438C18.0065 10.7308 18.0759 10.8342 18.1232 10.9481C18.1705 11.062 18.1949 11.1842 18.195 11.3075C18.195 11.4308 18.1708 11.553 18.1235 11.6669C18.0763 11.7809 18.007 11.8844 17.9197 11.9715L17.9186 11.9697ZM20.4967 14.5479C20.4096 14.6349 20.3063 14.704 20.1925 14.7511C20.0788 14.7983 19.9568 14.8225 19.8337 14.8225C19.7106 14.8225 19.5886 14.7983 19.4749 14.7511C19.3611 14.704 19.2578 14.6349 19.1707 14.5479L18.5262 13.9033C18.3546 13.7266 18.2595 13.4895 18.2614 13.2433C18.2632 12.997 18.3619 12.7614 18.5361 12.5873C18.7103 12.4132 18.9459 12.3146 19.1922 12.3128C19.4385 12.3111 19.6755 12.4063 19.8522 12.5779L20.4967 13.2225C20.5843 13.3094 20.6539 13.4127 20.7015 13.5266C20.7491 13.6405 20.7737 13.7626 20.774 13.886C20.7743 14.0094 20.7502 14.1317 20.7031 14.2458C20.656 14.3598 20.5869 14.4635 20.4996 14.5508L20.4967 14.5479ZM23.1 17.1576C23.0129 17.2447 22.9096 17.3138 22.7958 17.3609C22.6821 17.408 22.5601 17.4323 22.437 17.4323C22.3139 17.4323 22.192 17.408 22.0782 17.3609C21.9644 17.3138 21.8611 17.2447 21.774 17.1576L21.1037 16.4838C21.0148 16.397 20.944 16.2934 20.8955 16.179C20.847 16.0646 20.8217 15.9417 20.8211 15.8175C20.8206 15.6932 20.8447 15.5701 20.8921 15.4552C20.9395 15.3404 21.0093 15.2361 21.0973 15.1485C21.1854 15.0608 21.29 14.9916 21.4051 14.9447C21.5202 14.8978 21.6434 14.8743 21.7677 14.8755C21.8919 14.8767 22.0147 14.9026 22.1288 14.9517C22.243 15.0007 22.3463 15.072 22.4326 15.1613L23.1035 15.8346C23.1906 15.9217 23.2596 16.0251 23.3067 16.1388C23.3537 16.2526 23.3779 16.3746 23.3779 16.4977C23.3778 16.6208 23.3535 16.7427 23.3063 16.8565C23.2592 16.9702 23.1901 17.0735 23.1029 17.1606L23.1 17.1576Z" fill="#2D2C3C"/>
</svg>
